<mxfile host="Electron" modified="2023-10-04T09:31:17.121Z" agent="5.0 (Windows NT 10.0; Win64; x64) AppleWebKit/537.36 (KHTML, like Gecko) draw.io/20.3.0 Chrome/104.0.5112.114 Electron/20.1.3 Safari/537.36" etag="JR2aP1qLix3t8y0Q-Sib" compressed="false" version="20.3.0" type="device">
  <diagram name="ND0009" id="pu4HRJLgpdM79BjL74F0">
    <mxGraphModel dx="782" dy="531" grid="1" gridSize="2" guides="1" tooltips="1" connect="1" arrows="1" fold="1" page="1" pageScale="1" pageWidth="1169" pageHeight="827" math="0" shadow="0">
      <root>
        <mxCell id="JZDtcvtR3eMtzLu_ldIY-0" />
        <object label="Symbol" Width="44" Height="6" UoM="mm" id="JZDtcvtR3eMtzLu_ldIY-124">
          <mxCell style="locked=1;" parent="JZDtcvtR3eMtzLu_ldIY-0" />
        </object>
        <mxCell id="PKo88w5tAX1isIfvF4OK-0" value="" style="group;flipH=1;" parent="JZDtcvtR3eMtzLu_ldIY-124" vertex="1" connectable="0">
          <mxGeometry x="272" y="160" width="704" height="96" as="geometry" />
        </mxCell>
        <mxCell id="JZDtcvtR3eMtzLu_ldIY-125" value="" style="endArrow=none;html=1;rounded=0;fontFamily=Helvetica;fontSize=16;" parent="PKo88w5tAX1isIfvF4OK-0" edge="1">
          <mxGeometry width="50" height="50" relative="1" as="geometry">
            <mxPoint x="704" y="96" as="sourcePoint" />
            <mxPoint x="704" as="targetPoint" />
          </mxGeometry>
        </mxCell>
        <mxCell id="JZDtcvtR3eMtzLu_ldIY-126" value="" style="endArrow=none;html=1;rounded=0;fontFamily=Helvetica;fontSize=16;" parent="PKo88w5tAX1isIfvF4OK-0" edge="1">
          <mxGeometry width="50" height="50" relative="1" as="geometry">
            <mxPoint x="704" as="sourcePoint" />
            <mxPoint x="64" as="targetPoint" />
          </mxGeometry>
        </mxCell>
        <mxCell id="JZDtcvtR3eMtzLu_ldIY-127" value="" style="endArrow=none;html=1;rounded=0;fontFamily=Helvetica;fontSize=16;" parent="PKo88w5tAX1isIfvF4OK-0" edge="1">
          <mxGeometry width="50" height="50" relative="1" as="geometry">
            <mxPoint x="704" y="96" as="sourcePoint" />
            <mxPoint x="64" y="96" as="targetPoint" />
          </mxGeometry>
        </mxCell>
        <mxCell id="JZDtcvtR3eMtzLu_ldIY-128" value="" style="endArrow=none;html=1;rounded=0;fontFamily=Helvetica;fontSize=16;" parent="PKo88w5tAX1isIfvF4OK-0" edge="1">
          <mxGeometry width="50" height="50" relative="1" as="geometry">
            <mxPoint x="64" as="sourcePoint" />
            <mxPoint y="48" as="targetPoint" />
          </mxGeometry>
        </mxCell>
        <mxCell id="JZDtcvtR3eMtzLu_ldIY-129" value="" style="endArrow=none;html=1;rounded=0;fontFamily=Helvetica;fontSize=16;" parent="PKo88w5tAX1isIfvF4OK-0" edge="1">
          <mxGeometry width="50" height="50" relative="1" as="geometry">
            <mxPoint x="64" y="96" as="sourcePoint" />
            <mxPoint y="48" as="targetPoint" />
          </mxGeometry>
        </mxCell>
        <mxCell id="JZDtcvtR3eMtzLu_ldIY-130" value="Connection" style="" parent="JZDtcvtR3eMtzLu_ldIY-0" />
        <object label="Connection" PipingConnector="Y" LabelConnector="N" SignalConnector="Y" Direction="180" AuxiliaryConnector="N" id="JZDtcvtR3eMtzLu_ldIY-131">
          <mxCell style="vsdxID=1407;fillColor=none;gradientColor=none;shape=stencil(rVFbDsIgEDwNnyQU4glqvcfGblsilmZBS28vZGMsxg9j/JvZmX1kR5g2TLCg0CpE8hdcbR8nYY5CaztPSDZmJEwnTDt4wpH8be6ZL1CcBV39vUxI3KdKh1YbswPTEzuBzlmiVGmKau9zUKM+jlJJQrJBko8QrZ+rrQ5oRJnXyMHBWElhRVx25ebnw/5zVvPFWRm83jxY5zilvf4eSy5xpKZ7AA==);strokeColor=#00FF00;strokeWidth=1;points=[[0.5,0.5,0,0,0]];labelBackgroundColor=none;rounded=0;html=1;whiteSpace=wrap;aspect=fixed;noLabel=1;snapToPoint=1;container=0;fontSize=16;fontFamily=Helvetica;" parent="JZDtcvtR3eMtzLu_ldIY-130" vertex="1">
            <mxGeometry x="266" y="202" width="12" height="12" as="geometry" />
          </mxCell>
        </object>
        <object label="Connection" PipingConnector="Y" LabelConnector="N" SignalConnector="Y" Direction="0" AuxiliaryConnector="N" id="JZDtcvtR3eMtzLu_ldIY-132">
          <mxCell style="vsdxID=1407;fillColor=none;gradientColor=none;shape=stencil(rVFbDsIgEDwNnyQU4glqvcfGblsilmZBS28vZGMsxg9j/JvZmX1kR5g2TLCg0CpE8hdcbR8nYY5CaztPSDZmJEwnTDt4wpH8be6ZL1CcBV39vUxI3KdKh1YbswPTEzuBzlmiVGmKau9zUKM+jlJJQrJBko8QrZ+rrQ5oRJnXyMHBWElhRVx25ebnw/5zVvPFWRm83jxY5zilvf4eSy5xpKZ7AA==);strokeColor=#00FF00;strokeWidth=1;points=[[0.5,0.5,0,0,0]];labelBackgroundColor=none;rounded=0;html=1;whiteSpace=wrap;aspect=fixed;noLabel=1;snapToPoint=1;container=0;fontSize=16;fontFamily=Helvetica;" parent="JZDtcvtR3eMtzLu_ldIY-130" vertex="1">
            <mxGeometry x="970" y="202" width="12" height="12" as="geometry" />
          </mxCell>
        </object>
        <mxCell id="JZDtcvtR3eMtzLu_ldIY-137" value="Label" style="locked=1;" parent="JZDtcvtR3eMtzLu_ldIY-0" />
        <object label="%LabelLines%&amp;nbsp; &amp;nbsp; &amp;nbsp; &amp;nbsp; &amp;nbsp; &amp;nbsp;%LabelIndex%" placeholders="1" LabelLines="1" LabelIndex="A" id="JZDtcvtR3eMtzLu_ldIY-138">
          <mxCell style="rounded=0;whiteSpace=wrap;html=1;fillColor=none;strokeColor=#FF0000;fontColor=#FF0000;fontSize=10;align=left;" parent="JZDtcvtR3eMtzLu_ldIY-137" vertex="1">
            <mxGeometry x="634" y="200" width="80" height="16" as="geometry" />
          </mxCell>
        </object>
        <object label="%LabelLines%&amp;nbsp; &amp;nbsp; &amp;nbsp; &amp;nbsp; &amp;nbsp; &amp;nbsp;%LabelIndex%" placeholders="1" LabelLines="3" LabelIndex="B" id="zaThJXtglQxKaWgNBIFl-0">
          <mxCell style="rounded=0;whiteSpace=wrap;html=1;fillColor=none;strokeColor=#FF0000;fontColor=#FF0000;fontSize=10;align=left;" parent="JZDtcvtR3eMtzLu_ldIY-137" vertex="1">
            <mxGeometry x="630" y="128" width="80" height="16" as="geometry" />
          </mxCell>
        </object>
        <mxCell id="JZDtcvtR3eMtzLu_ldIY-139" value="Origo" style="locked=1;" parent="JZDtcvtR3eMtzLu_ldIY-0" />
        <object label="origo" id="JZDtcvtR3eMtzLu_ldIY-140">
          <mxCell style="vsdxID=1407;fillColor=none;gradientColor=none;shape=stencil(rVFbDsIgEDwNnyQU4glqvcfGblsilmZBS28vZGMsxg9j/JvZmX1kR5g2TLCg0CpE8hdcbR8nYY5CaztPSDZmJEwnTDt4wpH8be6ZL1CcBV39vUxI3KdKh1YbswPTEzuBzlmiVGmKau9zUKM+jlJJQrJBko8QrZ+rrQ5oRJnXyMHBWElhRVx25ebnw/5zVvPFWRm83jxY5zilvf4eSy5xpKZ7AA==);strokeColor=#ff0000;strokeWidth=1;points=[[0.5,0.5,0,0,0]];labelBackgroundColor=none;rounded=0;html=1;whiteSpace=wrap;aspect=fixed;noLabel=1;snapToPoint=1;" parent="JZDtcvtR3eMtzLu_ldIY-139" vertex="1">
            <mxGeometry x="652" y="204.06" width="7.874" height="7.87" as="geometry" />
          </mxCell>
        </object>
      </root>
    </mxGraphModel>
  </diagram>
</mxfile>
